<?xml version="1.0" standalone="no"?>
<!DOCTYPE svg PUBLIC "-//W3C//DTD SVG 20010904//EN"
 "http://www.w3.org/TR/2001/REC-SVG-20010904/DTD/svg10.dtd">
<svg version="1.0" xmlns="http://www.w3.org/2000/svg"
 width="640.000000pt" height="640.000000pt" viewBox="0 0 640.000000 640.000000"
 preserveAspectRatio="xMidYMid meet">

<g transform="translate(0.000000,640.000000) scale(0.100000,-0.100000)"
fill="#000000" stroke="none">
<path d="M0 3200 l0 -3200 3200 0 3200 0 0 3200 0 3200 -3200 0 -3200 0 0
-3200z m2943 2598 c10 -16 7 -29 -15 -61 -11 -15 -10 -20 6 -33 38 -27 68 -17
126 41 49 50 83 67 92 48 2 -5 27 -30 55 -57 l52 -49 33 26 c18 14 46 37 62
51 16 14 36 26 45 26 9 -1 42 -25 74 -55 35 -32 64 -52 73 -48 8 3 14 0 14 -6
0 -6 8 -11 18 -11 13 -1 11 -4 -8 -15 -37 -21 -44 -19 -104 30 -31 25 -62 45
-69 45 -7 0 -24 -11 -37 -25 -12 -13 -40 -36 -61 -51 l-38 -26 -28 20 c-15 11
-44 36 -62 56 -19 20 -38 36 -42 36 -4 0 -34 -22 -65 -50 -60 -53 -85 -60
-122 -34 -12 8 -26 13 -31 9 -6 -3 -8 8 -6 25 3 18 0 28 -5 25 -6 -4 -10 -2
-10 4 0 5 5 11 12 13 8 3 11 21 10 47 -3 44 11 52 31 19z m-59 -6 c3 -5 -1 -9
-9 -9 -8 0 -12 4 -9 9 3 4 7 8 9 8 2 0 6 -4 9 -8z m21 -32 c3 -5 1 -10 -4 -10
-6 0 -11 5 -11 10 0 6 2 10 4 10 3 0 8 -4 11 -10z m0 -120 c3 -5 1 -10 -4 -10
-6 0 -11 5 -11 10 0 6 2 10 4 10 3 0 8 -4 11 -10z m0 -30 c3 -5 2 -10 -4 -10
-5 0 -13 5 -16 10 -3 6 -2 10 4 10 5 0 13 -4 16 -10z m493 -20 c82 -11 177
-41 162 -50 -7 -4 -12 -11 -13 -16 -1 -5 -6 -8 -11 -6 -5 2 -54 10 -110 18
-120 19 -286 14 -391 -12 -38 -9 -79 -18 -90 -20 -11 -2 -30 -6 -41 -9 -12 -4
-25 -2 -28 3 -4 6 2 8 15 5 15 -4 22 0 26 16 4 16 22 26 74 41 125 38 279 49
407 30z m-494 -15 c3 -8 1 -15 -4 -15 -6 0 -10 7 -10 15 0 8 2 15 4 15 2 0 6
-7 10 -15z m511 -96 c60 -9 83 -18 107 -39 l30 -28 -29 4 c-15 2 -59 8 -98 13
-129 19 -337 8 -465 -25 -24 -6 -25 -6 -5 10 19 15 19 16 -8 6 -45 -16 -55
-12 -17 8 102 54 316 76 485 51z m-127 -71 c28 -28 -3 -83 -33 -58 -8 7 -15
20 -15 29 0 17 18 41 30 41 3 0 11 -5 18 -12z m-163 -19 c4 -5 4 -21 1 -35 -5
-19 -12 -25 -29 -22 -37 5 -36 68 2 68 11 0 23 -5 26 -11z m340 0 c13 -19 -4
-59 -25 -59 -12 0 -22 9 -26 24 -7 31 1 46 26 46 10 0 22 -5 25 -11z m-507
-61 c-2 -25 -8 -34 -25 -36 -17 -3 -24 3 -29 22 -8 33 1 46 32 46 22 0 25 -4
22 -32z m675 11 c8 -31 -3 -50 -27 -47 -16 2 -22 11 -24 36 -3 28 0 32 21 32
17 0 26 -7 30 -21z m-228 -29 c80 -12 146 -31 127 -38 -10 -3 -10 -7 0 -20 11
-13 10 -15 -12 -9 -119 31 -373 33 -495 3 -70 -18 -108 -21 -86 -7 7 5 11 13
8 18 -4 6 13 16 36 23 123 37 288 49 422 30z m487 -187 l157 -6 3 -126 3 -126
50 -6 c38 -4 42 -6 16 -7 -27 -2 -31 -5 -22 -16 9 -11 4 -15 -26 -20 -90 -14
-85 -22 -81 119 l3 125 -732 0 -733 0 0 -125 0 -125 -107 1 c-70 0 -101 3 -88
9 14 6 15 9 5 10 -10 1 -9 4 5 10 19 8 19 9 -3 9 -13 1 -20 5 -17 11 3 6 37
10 76 10 l69 0 0 125 0 124 88 4 c173 6 1180 7 1334 0z m55 -268 c1 -112 4
-130 17 -127 9 2 25 -2 37 -9 30 -15 8 -29 -49 -29 l-43 0 3 125 3 125 -647 0
-648 0 0 -125 0 -125 -90 0 c-79 0 -90 2 -91 18 -1 16 -2 16 -6 -1 -5 -20 -35
-19 -39 1 -1 7 0 8 3 2 2 -5 9 -10 14 -10 6 0 7 4 4 10 -9 14 36 22 100 18
l55 -3 0 117 c0 64 3 124 6 132 6 15 73 16 688 14 l681 -3 2 -130z m-1645 -95
c-7 -18 -8 -8 -6 35 4 75 6 81 11 30 2 -23 0 -52 -5 -65z m-449 63 c13 -7 7
-107 -8 -127 -13 -17 -15 -17 -37 -2 -46 33 -86 13 -109 -53 -10 -29 -9 -35 8
-53 13 -13 36 -21 64 -22 44 -2 44 -2 47 -43 2 -31 -2 -47 -21 -68 -28 -33
-53 -29 -82 15 -23 35 -35 38 -35 9 0 -39 32 -73 169 -178 44 -33 55 -84 45
-206 -11 -151 -12 -148 41 -212 26 -32 54 -61 63 -65 14 -5 13 -7 -4 -7 -11
-1 -25 4 -32 11 -9 9 -12 9 -12 1 0 -7 5 -15 11 -18 6 -4 8 -14 5 -22 -4 -9
-1 -22 5 -29 6 -7 8 -18 5 -23 -4 -5 2 -14 11 -20 10 -6 14 -11 10 -11 -5 0
-27 13 -50 29 -60 41 -223 121 -247 121 -14 0 -20 -7 -20 -21 0 -13 -37 -59
-99 -123 -117 -121 -131 -153 -131 -306 0 -126 -3 -131 -178 -278 -66 -55 -67
-79 -10 -156 l41 -56 84 0 c47 0 93 -4 103 -10 15 -8 60 -72 60 -85 0 -2 -16
-1 -35 2 l-35 6 6 -64 6 -64 -33 53 c-19 28 -37 52 -41 52 -5 0 -8 -15 -9 -32
-1 -49 -11 -69 -29 -58 -8 5 -25 10 -38 10 -35 0 -105 72 -132 135 l-24 56
-13 -25 c-16 -31 -26 -32 -44 -8 -12 15 -12 16 1 5 13 -10 16 -9 16 5 0 9 3
31 7 47 6 22 5 26 -3 15 -7 -10 -10 27 -10 125 0 100 4 145 13 154 10 10 9 11
-3 6 -17 -6 -17 8 -7 300 l6 160 68 48 c126 89 120 76 126 250 6 173 23 252
69 309 39 49 25 48 -32 -2 l-45 -40 -3 57 c-5 93 7 160 34 192 31 37 31 51 0
22 -28 -26 -90 -37 -126 -22 -23 9 -23 10 -4 10 34 1 64 33 74 78 6 23 23 65
40 93 35 60 35 60 12 60 -10 0 -28 9 -40 20 -27 26 -28 34 -3 20 34 -18 84
-10 141 21 l55 30 165 -7 c91 -3 168 -8 173 -11z m3215 -13 c64 -30 125 -39
137 -20 3 6 12 10 18 10 17 -1 -41 -50 -59 -50 -21 0 -18 -14 16 -67 17 -26
33 -65 37 -87 7 -45 33 -76 66 -76 18 0 19 -2 7 -10 -25 -16 -83 -11 -117 10
-38 23 -42 16 -12 -16 26 -28 38 -85 39 -183 l0 -74 -44 41 c-60 55 -104 78
-55 28 53 -53 71 -127 79 -313 6 -152 6 -153 35 -184 17 -17 54 -47 83 -66 53
-36 75 -58 48 -47 -9 3 -16 1 -16 -5 0 -6 6 -11 13 -12 6 0 8 -2 2 -5 -6 -2
-10 -60 -9 -147 1 -78 -2 -176 -7 -217 -9 -81 -12 -211 -5 -275 2 -22 -1 -52
-6 -67 -8 -21 -7 -31 6 -43 19 -20 19 -22 4 -31 -7 -4 -8 -3 -4 4 4 7 2 12 -3
12 -13 0 -14 -10 -2 -29 10 -16 -30 -99 -63 -131 -29 -26 -124 -62 -132 -49
-3 6 -6 30 -7 55 l0 45 -23 -28 c-13 -15 -30 -41 -39 -58 -16 -30 -16 -30 -12
33 3 55 1 62 -16 62 -10 0 -27 -5 -38 -10 -28 -16 -24 2 14 52 l33 43 89 3
c99 3 107 7 156 79 47 68 42 83 -59 162 -49 38 -102 89 -118 112 -28 40 -29
48 -30 155 -2 145 -17 178 -136 296 -65 64 -88 94 -88 113 0 38 -35 33 -137
-21 -86 -45 -245 -150 -251 -166 -8 -19 -22 -6 -18 17 3 18 -1 28 -17 36 -12
7 -24 13 -26 15 -2 2 10 15 25 29 l29 27 -28 -7 c-21 -6 -27 -4 -27 10 0 10
-5 14 -12 9 -7 -4 -10 -4 -6 0 3 4 8 7 10 5 10 -8 48 25 48 42 0 21 -1 20 -20
-2 -10 -13 -19 -19 -20 -14 0 6 5 16 11 22 8 8 6 18 -6 37 -10 15 -15 30 -11
33 4 4 9 -3 13 -15 6 -23 18 -29 28 -12 3 6 1 10 -4 10 -6 0 -11 5 -11 10 0
18 17 10 51 -25 19 -19 41 -35 49 -35 21 1 51 28 88 78 l31 43 -6 143 c-4 100
-2 148 6 164 7 12 54 56 106 98 95 75 116 106 97 140 -9 15 -11 14 -25 -13
-24 -46 -43 -58 -71 -45 -28 13 -51 72 -42 109 6 21 11 24 31 19 14 -4 41 0
60 8 28 12 35 20 35 43 0 15 -9 43 -20 61 -22 36 -52 42 -88 16 -36 -25 -52
-4 -52 72 l0 63 103 4 c56 1 131 4 167 5 54 2 76 -3 128 -28z m-2781 -102 c-3
-8 -6 -5 -6 6 -1 11 2 17 5 13 3 -3 4 -12 1 -19z m57 -24 c4 -15 5 -29 1 -32
-3 -3 -5 2 -5 11 0 10 -5 17 -11 17 -7 0 -9 -10 -5 -27 5 -24 5 -25 -5 -10
-12 20 -5 67 10 67 5 0 12 -12 15 -26z m90 -75 c4 -22 4 -45 0 -50 -3 -5 0
-16 6 -24 7 -9 9 -26 5 -45 -5 -22 -2 -39 11 -58 16 -24 18 -53 18 -272 0
-236 -4 -313 -18 -327 -3 -3 -6 -18 -6 -32 0 -33 -48 -183 -49 -156 -1 17 -3
18 -12 5 -9 -13 -10 -13 -6 0 2 8 9 14 15 13 6 -2 11 5 11 15 1 55 9 134 16
140 4 4 4 -15 0 -43 -4 -27 -4 -47 0 -43 18 17 23 583 5 648 -7 25 -9 64 -6
87 3 25 -1 61 -9 90 -16 52 -19 80 -5 48 8 -17 9 -16 9 9 1 21 -3 27 -15 22
-8 -3 -12 -2 -9 4 14 23 33 8 39 -31z m-88 -1 c-15 -87 -16 -103 -10 -132 6
-27 8 -29 15 -11 11 29 10 55 -2 30 -7 -16 -8 -12 -4 14 3 18 5 45 6 60 2 43
29 -108 34 -194 17 -247 16 -341 -5 -466 -22 -125 -29 -152 -31 -108 l-1 24
-7 -25 c-6 -18 -8 -10 -8 30 0 30 2 46 5 35 7 -35 22 -41 22 -9 -1 29 -24 72
-32 57 -3 -4 -2 -1 0 7 3 8 9 47 12 85 l7 70 3 -60 c3 -59 3 -59 12 30 4 50 7
106 5 125 -2 19 -4 7 -5 -27 -1 -38 -6 -63 -13 -63 -7 0 -9 42 -6 135 2 80 0
135 -5 135 -5 0 -7 13 -3 29 7 32 -3 103 -14 97 -4 -3 -6 11 -6 30 1 19 -2 37
-7 40 -5 3 -6 10 -2 15 3 5 9 7 13 4 5 -2 11 13 15 35 3 22 9 40 12 40 4 0 4
-15 0 -32z m-39 -10 c-3 -7 -5 -2 -5 12 0 14 2 19 5 13 2 -7 2 -19 0 -25z
m1311 -10 c28 -6 50 -13 47 -16 -2 -3 0 -13 6 -23 6 -13 6 -25 -1 -39 -6 -11
-8 -26 -3 -33 4 -6 8 -20 8 -30 2 -15 -1 -15 -24 5 -66 59 -162 83 -298 76
-112 -6 -176 -32 -238 -99 -86 -92 -119 -204 -118 -399 1 -194 42 -321 138
-428 82 -92 201 -140 319 -130 94 8 100 19 104 193 l3 145 -26 24 c-20 19 -42
26 -96 31 l-70 7 3 32 c3 28 6 31 36 30 17 0 84 -1 147 -2 l115 -2 -2 -247 -3
-247 -50 -14 c-78 -23 -370 -22 -455 2 -141 39 -298 144 -286 190 5 19 8 454
5 691 -1 105 -1 107 11 100 6 -3 10 1 10 9 0 21 93 90 162 120 66 29 158 54
243 66 71 10 239 4 313 -12z m-1385 -59 c17 -8 24 -19 24 -41 0 -16 6 -34 14
-39 9 -6 10 -9 2 -9 -7 0 -10 -7 -7 -15 4 -8 2 -15 -4 -15 -6 0 -9 -31 -9 -74
1 -62 3 -73 16 -68 13 5 12 2 -2 -12 -17 -18 -20 -18 -58 -1 l-39 18 -38 -29
c-20 -17 -46 -49 -57 -72 -11 -23 -23 -41 -27 -42 -4 0 -10 16 -14 35 l-6 35
-24 -49 c-14 -26 -34 -57 -46 -67 -21 -19 -21 -19 -9 3 6 12 8 29 4 39 -5 13
-3 15 7 9 9 -6 11 -4 5 4 -9 16 -10 104 -1 119 4 7 0 12 -10 12 -10 0 2 13 29
30 68 46 123 103 151 159 14 27 36 57 48 65 27 19 22 18 51 5z m2111 -10 c15
-11 35 -38 46 -60 27 -51 74 -104 126 -140 42 -28 43 -31 41 -78 -1 -27 -6
-47 -11 -43 -5 3 -6 0 -2 -6 3 -5 8 -32 11 -59 l4 -48 -24 40 c-14 22 -25 46
-25 53 0 6 -4 12 -10 12 -5 0 -10 -9 -10 -19 0 -11 -3 -27 -6 -36 -5 -12 -11
-7 -24 22 -10 21 -36 56 -59 77 l-41 40 -35 -17 c-20 -9 -51 -17 -70 -17 l-34
0 24 36 c17 25 25 51 25 81 0 40 -2 44 -30 50 -36 7 -34 23 4 42 23 11 27 18
23 41 -5 21 -1 30 16 38 30 15 31 15 61 -9z m-3140 -94 c11 -8 15 -15 10 -15
-14 0 -14 -33 0 -42 6 -4 -16 -5 -49 -2 -50 4 -66 2 -92 -15 -30 -19 -33 -26
-33 -67 0 -41 -4 -50 -39 -83 -26 -24 -43 -51 -51 -79 -22 -83 -41 -110 -54
-76 -3 8 -2 13 2 10 4 -2 8 17 9 42 1 31 -1 41 -8 31 -10 -16 -12 -8 -3 15 3
9 10 13 15 10 5 -3 9 -1 9 5 0 5 -6 11 -12 14 -10 3 -10 9 0 26 7 11 8 21 4
21 -12 0 -10 91 2 109 5 7 24 19 42 27 19 8 34 18 34 24 0 5 19 20 43 34 49
30 139 35 171 11z m4269 1 c18 -7 43 -25 56 -40 14 -14 30 -26 37 -26 22 0 64
-60 59 -83 -11 -43 -12 -226 -1 -230 6 -2 5 -6 -2 -11 -13 -8 -51 64 -52 97 0
10 -18 36 -40 58 -36 36 -40 45 -40 88 0 42 -4 51 -27 67 -33 22 -123 25 -147
5 -18 -16 -20 -59 -5 -114 6 -22 50 -121 99 -220 48 -101 93 -207 99 -239 17
-79 -1 -163 -42 -197 -13 -10 -16 0 -21 76 -8 114 -24 165 -98 320 -83 174
-117 276 -87 257 8 -5 8 -1 0 14 -16 29 -14 124 3 147 30 41 146 58 209 31z
m-3146 -18 c-3 -8 -6 -5 -6 6 -1 11 2 17 5 13 3 -3 4 -12 1 -19z m543 -54 c0
-8 -4 -12 -10 -9 -5 3 -10 10 -10 16 0 5 5 9 10 9 6 0 10 -7 10 -16z m2367
-46 c-3 -7 -5 -2 -5 12 0 14 2 19 5 13 2 -7 2 -19 0 -25z m-2369 -3 c-3 -3 -9
2 -12 12 -6 14 -5 15 5 6 7 -7 10 -15 7 -18z m-1658 -129 c-7 -19 -7 -25 0
-21 10 6 4 -42 -6 -54 -2 -2 1 -10 7 -18 9 -10 8 -13 0 -13 -7 0 -9 -4 -6 -10
3 -5 -3 -26 -14 -47 -10 -21 -37 -81 -60 -133 -36 -85 -41 -107 -46 -200 -3
-57 -8 -107 -11 -110 -9 -8 -41 41 -53 81 -15 50 -14 96 5 160 16 56 183 403
190 396 3 -2 0 -16 -6 -31z m1110 -407 c0 -6 -4 -7 -10 -4 -5 3 -10 11 -10 16
0 6 5 7 10 4 6 -3 10 -11 10 -16z m21 -42 c-9 -9 -10 -5 -7 13 6 36 8 37 13
16 3 -10 0 -23 -6 -29z m-626 -71 c87 -67 115 -98 115 -128 0 -36 -27 -90 -79
-156 -23 -28 -41 -54 -41 -58 0 -8 215 2 251 11 24 6 26 4 25 -24 -1 -17 -5
-31 -9 -31 -5 0 -5 -6 0 -12 15 -25 11 -38 -13 -38 -26 0 -31 -9 -13 -27 6 -6
14 -27 19 -47 8 -35 7 -36 -19 -29 -14 3 -44 13 -66 21 -24 9 -88 16 -160 18
-131 4 -194 12 -178 22 6 5 8 26 3 59 -4 34 -3 54 4 57 7 3 6 8 -3 14 -11 8
-11 13 2 33 8 13 22 47 30 75 16 55 9 78 -21 66 -12 -4 -14 -1 -9 12 4 10 4
23 0 29 -4 6 -6 29 -4 50 2 25 -1 37 -7 33 -6 -4 -14 -1 -18 6 -4 7 -4 10 1 6
4 -4 15 -2 23 5 13 10 14 9 7 -3 -8 -13 -6 -13 8 -1 17 13 14 36 -4 26 -24
-15 -5 14 28 42 42 37 40 37 128 -31z m3207 47 c8 -10 20 -31 26 -46 7 -15 17
-25 22 -22 6 3 7 -1 4 -9 -3 -9 -9 -16 -13 -16 -4 0 -7 -26 -7 -57 1 -34 -4
-64 -12 -71 -12 -14 -9 -60 7 -91 5 -9 4 -45 -1 -81 -5 -36 -7 -82 -4 -102 4
-24 2 -39 -6 -45 -7 -4 -56 -6 -108 -5 -87 3 -190 -14 -262 -43 -23 -9 -24 28
-3 69 8 15 15 30 15 32 0 6 -55 -1 -67 -9 -17 -11 -22 29 -8 57 12 22 11 27
-3 38 -49 37 -6 53 69 27 55 -19 239 -27 239 -11 0 4 -19 32 -41 62 -44 57
-78 124 -79 150 0 25 182 190 210 190 4 0 13 -8 22 -17z m-498 -38 c-23 -17
-34 -19 -34 -4 0 5 4 8 9 4 5 -3 12 -1 16 5 3 5 11 10 18 10 6 0 2 -7 -9 -15z
m-2118 -27 c-18 -26 -22 -17 -5 14 6 11 13 17 16 15 3 -3 -2 -16 -11 -29z
m555 -11 c-10 -9 -11 -8 -5 6 3 10 9 15 12 12 3 -3 0 -11 -7 -18z m-588 -20
c3 -8 -1 -14 -8 -14 -7 0 -11 6 -8 14 3 7 6 13 8 13 2 0 5 -6 8 -13z m107 -1
c0 -3 -4 -8 -10 -11 -5 -3 -10 -1 -10 4 0 6 5 11 10 11 6 0 10 -2 10 -4z
m-1266 -32 c5 -14 4 -15 -9 -4 -17 14 -19 20 -6 20 5 0 12 -7 15 -16z m2502
-364 c152 -12 238 -23 392 -52 98 -18 111 -23 100 -36 -11 -13 -9 -14 13 -9
18 5 26 3 26 -7 0 -10 -10 -13 -31 -10 -17 2 -92 13 -166 23 -250 36 -374 45
-650 44 -293 0 -482 -16 -768 -66 -73 -13 -135 -20 -138 -15 -3 4 -17 8 -32 8
-23 1 -24 2 -10 11 12 7 24 6 39 -2 19 -10 21 -9 16 5 -4 10 -2 16 6 15 6 -1
23 0 37 4 167 41 355 71 535 85 157 13 480 14 631 2z m871 -12 c-3 -8 -6 -5
-6 6 -1 11 2 17 5 13 3 -3 4 -12 1 -19z m-787 -74 c172 -17 371 -51 414 -70
17 -7 27 -13 21 -14 -6 0 -10 -60 -11 -155 -1 -86 -3 -158 -6 -160 -3 -3 -58
4 -124 15 -211 36 -364 51 -594 57 -307 8 -593 -17 -875 -76 -49 -11 -94 -17
-98 -14 -4 3 -19 6 -33 8 -16 1 -24 -3 -24 -14 0 -14 -2 -14 -10 -1 -6 9 -5
17 2 21 6 4 9 48 6 123 -3 88 -1 116 8 116 28 0 23 21 -5 26 -20 4 -31 13 -31
23 0 10 3 12 8 5 9 -14 52 -25 52 -13 0 5 -6 9 -14 9 -8 0 -18 5 -22 12 -5 8
0 9 14 6 12 -4 20 -3 17 2 -5 8 48 20 215 50 374 66 729 80 1090 44z m1640 -8
c0 -3 -4 -8 -10 -11 -5 -3 -10 -1 -10 4 0 6 5 11 10 11 6 0 10 -2 10 -4z
m-2967 -43 c-7 -2 -19 -2 -25 0 -7 3 -2 5 12 5 14 0 19 -2 13 -5z m-1256 -105
c-3 -8 -6 -5 -6 6 -1 11 2 17 5 13 3 -3 4 -12 1 -19z m1256 5 c-7 -2 -19 -2
-25 0 -7 3 -2 5 12 5 14 0 19 -2 13 -5z m-1238 -71 c-3 -3 -5 1 -5 9 0 12 -2
11 -11 -1 -9 -12 -10 -12 -5 3 3 10 6 24 7 30 0 7 5 1 10 -12 5 -13 7 -26 4
-29z m3438 -22 c154 -40 304 -106 284 -126 -2 -2 -106 22 -232 54 -230 57
-230 57 -227 83 3 26 4 26 50 18 26 -5 82 -18 125 -29z m-2463 6 c0 -8 3 -21
6 -30 4 -11 0 -16 -13 -16 -11 0 -100 -20 -199 -45 -98 -24 -190 -47 -204 -51
-20 -4 -22 -3 -10 5 13 10 13 11 0 11 -13 1 -13 2 0 9 55 31 359 129 408 131
6 0 12 -6 12 -14z m2470 -92 c74 -19 168 -45 208 -57 71 -23 72 -24 45 -36
-16 -7 -73 -29 -128 -48 -55 -20 -101 -37 -103 -38 -1 -1 27 -51 63 -110 35
-60 63 -110 61 -112 -1 -2 -43 11 -92 28 -122 41 -265 76 -416 99 -70 11 -129
20 -131 20 -2 0 -14 9 -27 20 -15 13 -18 20 -9 21 8 0 23 3 34 7 11 4 72 6
136 6 l117 0 17 86 c9 47 21 102 26 123 11 43 -11 44 199 -9z m-2446 -11 c4
-21 16 -80 28 -131 l21 -92 51 7 c64 10 165 10 191 0 16 -7 17 -10 5 -17 -12
-8 -11 -10 5 -10 43 -1 -11 -18 -95 -29 -137 -20 -308 -58 -425 -96 -59 -19
-109 -34 -111 -32 -2 1 24 48 56 102 33 55 60 105 60 110 0 6 -26 20 -57 30
-110 37 -198 74 -176 75 12 0 24 4 27 9 7 11 354 107 397 110 12 1 19 -10 23
-36z m1542 -24 c180 -17 523 -85 450 -88 -16 -1 -17 -3 -5 -17 12 -15 11 -16
-6 -11 -43 14 -263 47 -405 62 l-150 16 -67 -33 c-87 -42 -167 -116 -189 -173
-25 -66 -56 -61 -89 13 -23 53 -90 114 -170 155 l-60 30 -115 -12 c-114 -12
-248 -34 -427 -69 -51 -10 -90 -15 -87 -10 3 4 0 8 -6 8 -6 0 -8 5 -5 10 3 6
11 10 16 10 6 0 7 -4 4 -10 -3 -5 3 -10 14 -10 11 0 23 5 27 12 4 7 3 8 -4 4
-7 -4 -12 -3 -12 3 0 7 35 17 90 26 3 0 10 3 16 7 35 23 370 73 585 88 145 10
435 5 595 -11z m-1350 -54 c-1 -8 -5 -17 -8 -21 -5 -4 -4 16 1 34 3 9 9 -1 7
-13z m1731 -201 c-3 -3 -12 -4 -19 -1 -8 3 -5 6 6 6 11 1 17 -2 13 -5z m252
-25 c211 -35 419 -104 454 -151 12 -15 18 -30 15 -33 -3 -3 -43 9 -89 26 -203
75 -272 94 -454 124 -77 13 -141 28 -143 34 -2 5 -11 7 -20 4 -15 -6 -15 -5
-3 11 17 20 30 19 240 -15z m-1879 1 c-12 -8 -12 -10 5 -10 47 -1 -16 -19
-140 -39 -165 -28 -253 -50 -412 -106 -70 -24 -129 -42 -131 -40 -2 2 2 13 8
25 25 47 277 128 512 165 105 16 179 19 158 5z m-1280 -554 c0 -2 -9 -6 -20
-9 -11 -3 -18 -1 -14 4 5 9 34 13 34 5z m55 -2 c18 -4 20 -12 17 -69 -4 -67
-15 -84 -26 -40 -4 17 -11 23 -24 19 -13 -5 -14 -4 -3 4 8 6 11 17 8 26 -4 9
-2 16 3 16 6 0 10 -9 10 -20 0 -11 5 -20 10 -20 11 0 13 24 4 58 -5 17 -11 21
-26 16 -14 -4 -18 -2 -14 5 8 12 13 13 41 5z m657 -15 c10 -17 135 -368 150
-419 27 -94 112 -282 135 -297 56 -37 195 -23 207 21 3 11 6 159 6 328 0 343
2 333 -71 344 -28 5 -39 11 -39 24 0 16 19 17 253 16 244 -1 253 -2 300 -25
76 -37 111 -114 88 -191 -12 -41 -89 -120 -118 -120 -25 0 -5 -14 50 -34 96
-36 147 -115 133 -209 -14 -90 -81 -158 -197 -198 -72 -25 -89 -25 -596 -20
-275 4 -303 5 -303 21 0 11 13 20 38 26 49 12 50 33 9 149 l-32 90 -124 0
-125 0 -27 -85 c-43 -128 -38 -147 41 -157 24 -4 40 -11 40 -19 0 -8 -6 -14
-12 -15 -51 -3 -306 -3 -297 0 8 2 7 6 -2 11 -8 6 3 12 32 20 59 16 76 33 111
110 33 72 115 281 158 405 16 44 40 112 54 150 15 39 28 75 30 80 5 15 99 10
108 -6z m1697 -191 c147 -421 180 -500 217 -525 49 -32 187 -21 198 15 4 10 7
159 9 331 2 352 6 333 -74 346 -30 5 -39 11 -37 23 3 15 26 17 191 20 173 2
187 1 187 -15 0 -13 -14 -23 -48 -33 l-47 -15 -5 -185 c-6 -206 -1 -452 10
-470 4 -6 50 -13 111 -16 133 -7 149 2 208 115 41 78 65 99 78 66 6 -18 -49
-201 -69 -227 -17 -22 -20 -22 -555 -20 -438 2 -453 3 -453 21 0 14 10 21 38
28 32 7 37 13 39 38 2 17 -12 68 -30 115 l-32 85 -119 0 -119 0 -29 -84 c-39
-113 -36 -132 25 -150 34 -10 47 -20 47 -33 0 -17 -12 -18 -160 -18 -151 0
-160 1 -160 19 0 15 10 21 42 26 68 12 87 40 175 265 92 238 173 460 173 478
0 8 18 12 58 12 l57 0 74 -212z m1641 186 c74 -31 120 -63 113 -80 -4 -10 0
-12 13 -7 14 5 16 3 11 -11 -5 -12 -2 -16 9 -14 9 2 26 -14 42 -42 23 -40 23
-43 5 -27 -12 10 -24 30 -28 44 -3 14 -8 23 -11 20 -8 -7 35 -97 46 -97 5 0
17 -14 26 -31 8 -17 11 -28 4 -24 -6 4 -16 17 -21 29 -7 16 -8 11 -4 -22 4
-31 2 -41 -7 -40 -10 2 -13 -20 -14 -84 -1 -49 -5 -100 -9 -115 -4 -16 -9 -41
-10 -57 -2 -27 -1 -28 12 -11 15 21 17 39 4 31 -5 -4 -6 4 -3 16 5 19 7 20 10
5 2 -9 8 -15 13 -12 15 10 10 -3 -18 -48 -25 -41 -40 -56 -99 -106 -45 -38
-152 -79 -235 -89 -95 -12 -441 -3 -451 11 -11 18 0 25 46 32 76 12 71 -12 71
355 0 366 4 343 -67 355 -28 5 -38 12 -38 25 0 18 13 19 273 16 241 -3 277 -5
317 -22z m-3960 -87 c-11 -108 -14 -118 -38 -116 -15 1 -15 2 -1 6 13 3 18 22
23 76 4 40 9 87 13 105 10 62 12 27 3 -71z m-85 73 c-3 -5 -12 -7 -20 -3 -21
7 -19 13 6 13 11 0 18 -4 14 -10z m0 -30 c3 -5 2 -10 -4 -10 -5 0 -13 5 -16
10 -3 6 -2 10 4 10 5 0 13 -4 16 -10z m32 -62 c-3 -8 -6 -5 -6 6 -1 11 2 17 5
13 3 -3 4 -12 1 -19z m17 -34 c3 -8 2 -12 -4 -9 -6 3 -10 10 -10 16 0 14 7 11
14 -7z m6 -34 c0 -5 -5 -10 -11 -10 -5 0 -7 5 -4 10 3 6 8 10 11 10 2 0 4 -4
4 -10z m100 -272 c0 -12 -8 -18 -24 -18 -14 0 -31 -8 -38 -17 -7 -10 -21 -24
-30 -32 -16 -12 -18 -11 -18 3 0 9 6 16 14 16 8 0 16 7 19 14 4 11 1 13 -11 9
-12 -4 -14 -3 -7 5 6 6 28 12 50 15 32 3 28 4 -20 6 -96 4 -111 18 -18 17 72
-1 83 -3 83 -18z m-195 7 c-23 -8 -83 -10 -79 -3 3 4 24 8 47 7 23 0 38 -2 32
-4z m88 -29 c3 -7 -3 -20 -14 -29 -18 -16 -19 -16 -19 3 0 11 6 20 13 21 6 0
3 4 -8 9 -19 8 -19 9 1 9 12 1 24 -5 27 -13z m-93 -31 c-7 -9 -15 -13 -19 -10
-3 3 1 10 9 15 21 14 24 12 10 -5z m129 -68 l-1 -32 -8 30 c-7 28 -8 27 -9
-12 0 -25 4 -43 10 -43 20 0 5 -45 -16 -45 -11 -1 -19 -7 -17 -14 3 -17 -20
-9 -26 9 -3 7 0 10 7 6 6 -4 14 0 17 9 6 13 9 14 16 3 5 -8 6 5 2 34 -7 53 1
102 16 93 6 -3 9 -21 9 -38z m-51 -18 c-10 -7 -10 -9 0 -9 6 0 12 -10 12 -21
0 -18 -2 -19 -15 -9 -21 17 -20 61 1 53 13 -5 13 -7 2 -14z m-88 -84 c0 -25
-3 -45 -8 -45 -4 0 -6 20 -4 45 2 25 6 45 8 45 2 0 4 -20 4 -45z m138 -65 c10
0 13 3 7 8 -5 4 -12 16 -13 27 -3 17 -1 16 16 -5 12 -14 17 -29 12 -34 -13
-13 -118 -12 -132 2 -9 9 -4 9 23 2 42 -12 73 -12 44 0 -17 7 -17 9 -2 9 10 1
18 10 18 24 2 18 3 17 6 -5 3 -18 10 -28 21 -28z m-41 24 c-3 -3 -12 -4 -19
-1 -8 3 -5 6 6 6 11 1 17 -2 13 -5z m-127 -34 c-8 -5 -22 -9 -30 -9 -10 0 -8
3 5 9 27 12 43 12 25 0z m73 -17 c-7 -2 -19 -2 -25 0 -7 3 -2 5 12 5 14 0 19
-2 13 -5z m1996 -299 c2 -2 0 -23 -5 -46 l-9 -43 -20 40 c-21 41 -40 51 -81
41 -26 -7 -40 -42 -29 -75 3 -11 26 -31 50 -45 82 -48 105 -74 105 -116 0 -47
-29 -85 -76 -100 -39 -13 -120 -8 -136 8 -15 15 -23 92 -9 92 6 0 11 -7 11
-16 0 -8 13 -29 29 -45 35 -34 79 -38 106 -9 28 31 12 62 -59 115 -70 51 -92
87 -81 134 7 31 43 64 80 74 20 5 116 -2 124 -9z m-1019 -5 c0 -5 -6 -9 -14
-9 -33 0 -38 -26 -30 -165 7 -133 7 -136 33 -150 24 -13 20 -14 -58 -15 -46 0
-81 3 -77 8 4 4 13 7 19 7 9 0 13 40 14 135 3 152 10 154 -68 -15 -22 -49 -46
-101 -51 -115 -8 -18 -12 -21 -15 -10 -3 8 -15 38 -28 65 -12 28 -37 87 -55
133 -26 63 -36 79 -41 65 -8 -20 -12 -10 -10 24 1 12 -6 26 -16 32 -15 8 -12
10 15 9 22 -1 29 -4 20 -9 -9 -6 -6 -9 10 -9 13 0 20 4 17 10 -3 6 -2 10 4 10
13 0 24 -37 15 -51 -4 -7 -3 -9 3 -6 10 7 30 -29 74 -131 10 -24 23 -41 27
-38 5 3 31 55 57 115 48 109 49 110 84 113 20 2 44 4 54 5 9 1 17 -2 17 -8z
m310 -31 c0 -20 -4 -40 -10 -43 -5 -3 -10 -3 -11 2 -1 18 -8 45 -11 48 -2 2
-28 5 -58 7 l-55 3 -3 -67 -3 -68 56 0 c48 0 55 2 55 20 0 11 5 20 10 20 6 0
10 -25 9 -57 0 -56 -1 -57 -16 -35 -12 18 -25 22 -64 22 l-49 0 0 -60 c0 -68
12 -80 79 -80 34 0 44 5 68 35 37 47 45 44 26 -10 l-15 -45 -146 0 c-99 0
-142 3 -132 10 8 5 22 10 31 10 22 0 29 40 29 164 0 120 -6 146 -31 146 -11 0
-19 3 -19 8 0 4 58 7 130 7 l130 0 0 -37z m197 8 c15 -19 62 -77 103 -129 l75
-95 3 92 c4 113 -1 134 -33 142 -47 12 -25 22 45 22 66 0 97 -13 48 -20 -23
-3 -23 -6 -26 -165 l-2 -163 -28 0 c-23 0 -42 20 -132 138 l-105 137 -3 -95
c-4 -130 2 -160 33 -160 14 0 25 -4 25 -10 0 -6 -30 -10 -70 -10 -74 0 -85 5
-46 19 27 11 36 56 36 188 0 87 -10 123 -35 123 -7 0 -16 4 -19 9 -3 5 19 9
48 10 50 0 57 -3 83 -33z m713 24 c0 -5 -6 -10 -14 -10 -19 0 -25 -19 -15 -50
4 -14 17 -58 29 -98 12 -40 24 -70 29 -68 4 3 23 53 41 111 46 142 57 140 113
-12 23 -62 44 -110 48 -105 9 8 59 178 59 198 0 7 -11 16 -25 20 -65 16 -8 24
175 24 l200 0 0 -45 c0 -52 -11 -58 -27 -15 -10 28 -15 30 -61 30 l-50 0 -6
-37 c-3 -21 -4 -47 -2 -58 3 -11 5 -23 5 -27 1 -5 22 -8 47 -8 37 0 47 4 51
20 10 39 23 19 23 -35 0 -55 -13 -73 -25 -35 -5 16 -15 20 -50 20 -50 0 -53
-5 -47 -77 3 -43 7 -53 22 -53 9 0 32 -3 49 -6 27 -6 36 -2 67 31 19 21 37 35
40 33 2 -3 -2 -22 -9 -44 l-14 -39 -146 -3 c-96 -2 -147 1 -147 8 0 5 14 10
30 10 l31 0 -3 153 -3 152 -31 3 c-19 2 -36 -3 -46 -15 -9 -10 -37 -83 -63
-163 -26 -80 -49 -148 -51 -152 -2 -3 -12 -4 -22 -1 -12 3 -29 38 -56 114 -21
60 -41 109 -45 109 -4 0 -24 -50 -45 -111 -33 -94 -42 -110 -59 -107 -16 2
-26 25 -53 118 -50 172 -62 199 -90 206 -50 13 -21 24 61 24 50 0 85 -4 85
-10z m916 -3 c0 -1 20 -58 44 -127 54 -157 65 -178 98 -193 26 -11 25 -12 -21
-15 -26 -2 -67 -1 -90 1 -35 3 -38 5 -19 11 26 10 26 10 6 69 l-16 47 -48 0
c-56 0 -70 -12 -77 -70 -5 -36 -3 -40 16 -40 11 0 21 -4 21 -10 0 -6 -28 -10
-65 -10 -62 0 -86 12 -46 23 11 2 29 23 40 45 27 52 101 251 101 269 0 12 7
13 27 8 16 -4 28 -7 29 -8z m422 -14 c20 -15 28 -30 30 -59 3 -36 -1 -42 -39
-72 -24 -17 -38 -32 -32 -32 6 0 24 -20 40 -45 15 -25 32 -45 37 -45 4 0 5 -7
2 -16 -3 -8 -2 -13 2 -10 4 2 21 -7 37 -20 l30 -25 -50 6 c-55 6 -70 18 -124
103 -21 33 -40 52 -52 52 -17 0 -19 -8 -19 -65 0 -62 2 -66 28 -77 27 -12 27
-12 -15 -16 -24 -2 -62 -1 -85 1 -35 3 -39 5 -21 11 30 11 35 43 31 191 -3
116 -4 120 -25 123 -13 2 -23 6 -23 10 0 4 50 6 111 6 94 -1 115 -5 137 -21z
m-2938 -181 c-9 -95 -4 -119 29 -130 20 -7 10 -9 -44 -9 -38 0 -60 2 -47 4 37
7 46 42 52 203 1 33 3 40 9 25 4 -11 5 -53 1 -93z m-193 32 c-6 -7 -349 -5
-356 1 -2 3 78 5 179 5 101 0 181 -3 177 -6z m3390 0 c-3 -3 -12 -4 -19 -1 -8
3 -5 6 6 6 11 1 17 -2 13 -5z m91 -1 c-16 -2 -40 -2 -55 0 -16 2 -3 4 27 4 30
0 43 -2 28 -4z"/>
<path d="M2921 5784 c0 -11 3 -14 6 -6 3 7 2 16 -1 19 -3 4 -6 -2 -5 -13z"/>
<path d="M1146 3345 c4 -8 8 -15 10 -15 2 0 4 7 4 15 0 8 -4 15 -10 15 -5 0
-7 -7 -4 -15z"/>
<path d="M1166 2923 c-6 -14 -5 -15 5 -6 7 7 10 15 7 18 -3 3 -9 -2 -12 -12z"/>
<path d="M4420 3709 c0 -5 5 -7 10 -4 6 3 10 8 10 11 0 2 -4 4 -10 4 -5 0 -10
-5 -10 -11z"/>
<path d="M2434 4407 c3 -10 6 -24 7 -30 0 -7 5 -1 10 12 5 13 7 26 4 29 -3 3
-5 -1 -5 -9 0 -12 -2 -11 -11 1 -9 12 -10 12 -5 -3z"/>
<path d="M2452 4325 c0 -16 2 -22 5 -12 2 9 2 23 0 30 -3 6 -5 -1 -5 -18z"/>
<path d="M2461 4254 c0 -11 3 -14 6 -6 3 7 2 16 -1 19 -3 4 -6 -2 -5 -13z"/>
<path d="M2452 3915 c0 -16 2 -22 5 -12 2 9 2 23 0 30 -3 6 -5 -1 -5 -18z"/>
<path d="M2441 3854 c0 -11 3 -14 6 -6 3 7 2 16 -1 19 -3 4 -6 -2 -5 -13z"/>
<path d="M2354 4327 c1 -65 2 -111 4 -103 2 9 7 16 11 16 6 0 -4 151 -13 190
-1 8 -3 -38 -2 -103z"/>
<path d="M2340 3930 c0 -5 5 -10 10 -10 6 0 10 -7 10 -17 0 -9 3 -14 6 -10 8
8 -5 47 -17 47 -5 0 -9 -4 -9 -10z"/>
<path d="M4936 3377 c3 -10 9 -15 12 -12 3 3 0 11 -7 18 -10 9 -11 8 -5 -6z"/>
<path d="M3220 2722 c0 -5 9 -17 19 -27 19 -16 21 -16 50 5 17 12 31 23 31 26
0 2 -22 4 -50 4 -27 0 -50 -4 -50 -8z"/>
<path d="M3145 2701 c17 -10 49 -39 73 -64 23 -26 44 -47 45 -47 2 0 20 21 42
48 l38 47 -40 -38 c-37 -35 -41 -37 -54 -21 -22 27 -110 94 -122 94 -7 0 2 -8
18 -19z"/>
<path d="M3359 2693 c-13 -16 -12 -17 4 -4 9 7 17 15 17 17 0 8 -8 3 -21 -13z"/>
<path d="M2527 1873 c-4 -3 -7 -69 -7 -145 l0 -138 81 0 c76 0 82 2 110 29 26
26 29 36 29 94 0 76 -25 122 -80 149 -34 18 -120 25 -133 11z"/>
<path d="M1746 1751 c-12 -19 -85 -254 -82 -260 2 -3 43 -5 90 -3 73 3 86 6
86 20 0 26 -71 236 -84 249 -2 2 -7 0 -10 -6z"/>
<path d="M2520 1388 c0 -174 5 -190 69 -209 74 -22 149 11 177 77 18 43 18
147 0 182 -33 63 -76 86 -179 97 l-67 7 0 -154z"/>
<path d="M3332 1632 c-23 -70 -42 -131 -42 -135 0 -4 41 -7 91 -7 69 0 90 3
87 13 -3 6 -22 64 -43 127 -21 63 -41 118 -44 123 -4 4 -26 -50 -49 -121z"/>
<path d="M4887 1865 c-9 -21 -7 -580 2 -620 13 -63 153 -90 237 -47 116 60
173 219 145 405 -28 182 -118 267 -291 275 -75 4 -88 2 -93 -13z"/>
<path d="M5282 1844 c10 -10 20 -16 22 -13 3 3 -5 11 -17 18 -21 13 -21 12 -5
-5z"/>
<path d="M5364 1656 c0 -49 2 -52 14 -35 12 17 12 25 0 54 l-14 35 0 -54z"/>
<path d="M5360 1425 c0 -8 2 -15 4 -15 2 0 6 7 10 15 3 8 1 15 -4 15 -6 0 -10
-7 -10 -15z"/>
<path d="M5295 1260 c-10 -11 -16 -20 -13 -20 3 0 15 9 28 20 13 11 19 20 13
20 -5 0 -18 -9 -28 -20z"/>
<path d="M5225 1250 c-3 -5 -1 -10 4 -10 6 0 11 5 11 10 0 6 -2 10 -4 10 -3 0
-8 -4 -11 -10z"/>
<path d="M1762 796 c7 -8 15 -12 17 -11 5 6 -10 25 -20 25 -5 0 -4 -6 3 -14z"/>
<path d="M4186 724 c-23 -68 -21 -74 19 -74 39 0 43 12 24 71 -18 53 -25 54
-43 3z"/>
<path d="M4540 750 l0 -80 33 0 c52 0 72 21 72 75 0 54 -28 85 -76 85 l-29 0
0 -80z"/>
</g>
</svg>
